<mxfile host="app.diagrams.net" modified="2021-02-19T15:25:17.671Z" agent="5.0 (Windows NT 10.0; Win64; x64) AppleWebKit/537.36 (KHTML, like Gecko) Chrome/88.0.4324.182 Safari/537.36" etag="787iRqASKQTVMKpM8UAo" version="14.4.2" type="github">
  <diagram id="C5RBs43oDa-KdzZeNtuy" name="Page-1">
    <mxGraphModel dx="538" dy="1138" grid="1" gridSize="10" guides="1" tooltips="1" connect="1" arrows="1" fold="1" page="1" pageScale="1" pageWidth="827" pageHeight="1169" math="0" shadow="0">
      <root>
        <mxCell id="WIyWlLk6GJQsqaUBKTNV-0" />
        <mxCell id="WIyWlLk6GJQsqaUBKTNV-1" parent="WIyWlLk6GJQsqaUBKTNV-0" />
        <mxCell id="oBnnCq1J7T2Qm0wQH792-0" value="准备数据集" style="rounded=0;whiteSpace=wrap;html=1;" vertex="1" parent="WIyWlLk6GJQsqaUBKTNV-1">
          <mxGeometry x="270" y="90" width="120" height="60" as="geometry" />
        </mxCell>
        <mxCell id="oBnnCq1J7T2Qm0wQH792-1" value="数据集处理" style="rounded=0;whiteSpace=wrap;html=1;" vertex="1" parent="WIyWlLk6GJQsqaUBKTNV-1">
          <mxGeometry x="270" y="200" width="120" height="60" as="geometry" />
        </mxCell>
        <mxCell id="oBnnCq1J7T2Qm0wQH792-2" value="生成训练标签" style="rounded=0;whiteSpace=wrap;html=1;" vertex="1" parent="WIyWlLk6GJQsqaUBKTNV-1">
          <mxGeometry x="270" y="330" width="120" height="60" as="geometry" />
        </mxCell>
        <mxCell id="oBnnCq1J7T2Qm0wQH792-3" value="划分数据集" style="rounded=0;whiteSpace=wrap;html=1;" vertex="1" parent="WIyWlLk6GJQsqaUBKTNV-1">
          <mxGeometry x="270" y="460" width="120" height="60" as="geometry" />
        </mxCell>
        <mxCell id="oBnnCq1J7T2Qm0wQH792-4" value="训练集" style="rounded=0;whiteSpace=wrap;html=1;" vertex="1" parent="WIyWlLk6GJQsqaUBKTNV-1">
          <mxGeometry x="150" y="570" width="120" height="60" as="geometry" />
        </mxCell>
        <mxCell id="oBnnCq1J7T2Qm0wQH792-5" value="验证集" style="rounded=0;whiteSpace=wrap;html=1;" vertex="1" parent="WIyWlLk6GJQsqaUBKTNV-1">
          <mxGeometry x="400" y="570" width="120" height="60" as="geometry" />
        </mxCell>
        <mxCell id="oBnnCq1J7T2Qm0wQH792-6" value="选择模型" style="rounded=0;whiteSpace=wrap;html=1;" vertex="1" parent="WIyWlLk6GJQsqaUBKTNV-1">
          <mxGeometry x="270" y="690" width="120" height="60" as="geometry" />
        </mxCell>
        <mxCell id="oBnnCq1J7T2Qm0wQH792-7" value="模型训练" style="rounded=0;whiteSpace=wrap;html=1;" vertex="1" parent="WIyWlLk6GJQsqaUBKTNV-1">
          <mxGeometry x="270" y="820" width="120" height="60" as="geometry" />
        </mxCell>
        <mxCell id="oBnnCq1J7T2Qm0wQH792-8" value="模型评估" style="rounded=0;whiteSpace=wrap;html=1;" vertex="1" parent="WIyWlLk6GJQsqaUBKTNV-1">
          <mxGeometry x="270" y="950" width="120" height="60" as="geometry" />
        </mxCell>
        <mxCell id="oBnnCq1J7T2Qm0wQH792-9" value="测试集" style="rounded=0;whiteSpace=wrap;html=1;" vertex="1" parent="WIyWlLk6GJQsqaUBKTNV-1">
          <mxGeometry x="120" y="1070" width="120" height="60" as="geometry" />
        </mxCell>
        <mxCell id="oBnnCq1J7T2Qm0wQH792-10" value="模型测试" style="rounded=0;whiteSpace=wrap;html=1;" vertex="1" parent="WIyWlLk6GJQsqaUBKTNV-1">
          <mxGeometry x="270" y="1070" width="120" height="60" as="geometry" />
        </mxCell>
      </root>
    </mxGraphModel>
  </diagram>
</mxfile>
